# xmcd CD database file
#
# Track frame offsets:
#	150
#	79760
#	153467
#	189060
#	228703
#	253695
#
# Disc length: 4042 seconds
#
# Revision: 0
# Processed by: cddbd v1.4PL0 Copyright (c) Steve Scherf et al.
# Submitted via: CDex 1.50Beta3
#
DISCID=410fc806
DTITLE=Loskot - Smierdzace Kwiatuszki
DYEAR=1900
DGENRE=Jazz
TTITLE0=Piesek patrzy na golebie
TTITLE1=Razem na basenie
TTITLE2=Smierdzace kwiatuszki
TTITLE3=Mezczyzni czasem marzna
TTITLE4=Koledzy z Francji
TTITLE5=Molowy Tujo 
EXTD=
EXTT0=
EXTT1=
EXTT2=
EXTT3=
EXTT4=
EXTT5=
PLAYORDER=
